<?xml version="1.0" standalone="no"?><!DOCTYPE svg PUBLIC "-//W3C//DTD SVG 1.1//EN" "http://www.w3.org/Graphics/SVG/1.1/DTD/svg11.dtd"><svg t="1610093237881" class="icon" viewBox="0 0 1024 1024" version="1.1" xmlns="http://www.w3.org/2000/svg" p-id="3094" xmlns:xlink="http://www.w3.org/1999/xlink" width="200" height="200"><defs><style type="text/css"></style></defs><path d="M613.3 512.4L274.9 850.8c-24.9 24.9-24.9 65.6 0 90.5 24.9 24.9 65.6 24.9 90.5 0L749 557.7c6.2-6.2 10.9-13.4 14-21.1 5.4-13.5 6.1-28.5 2-42.4-0.6-2-1.3-3.9-2-5.9-3.1-7.7-7.8-14.9-14-21.1L365.4 83.5c-24.9-24.9-65.6-24.9-90.5 0-24.9 24.9-24.9 65.6 0 90.5l338.4 338.4z" p-id="3095" fill="#e6e6e6"></path></svg>