<?xml version="1.0" standalone="no"?><!DOCTYPE svg PUBLIC "-//W3C//DTD SVG 1.1//EN" "http://www.w3.org/Graphics/SVG/1.1/DTD/svg11.dtd"><svg t="1609751985771" class="icon" viewBox="0 0 1024 1024" version="1.1" xmlns="http://www.w3.org/2000/svg" p-id="2488" xmlns:xlink="http://www.w3.org/1999/xlink" width="200" height="200"><defs><style type="text/css"></style></defs><path d="M847.592727 827.345455c-9.076364 0-18.152727-2.56-26.298182-7.447273l-194.327272-119.621818c-6.981818-4.189091-11.170909-11.636364-11.170909-19.781819v-367.70909c0-8.145455 4.189091-15.592727 11.170909-19.781819l194.094545-119.621818c16.058182-9.774545 35.141818-10.007273 51.432727-0.930909 16.756364 9.541818 27.229091 27.461818 27.229091 47.243636v553.658182c0 19.781818-10.472727 37.701818-27.229091 47.243637-7.68 4.421818-16.290909 6.749091-24.901818 6.749091z m-185.018182-159.883637l182.923637 112.64c0.465455 0.232727 2.094545 1.163636 4.189091 0 0.930909-0.698182 3.490909-2.327273 3.490909-6.749091V219.927273c0-4.421818-2.327273-6.050909-3.490909-6.749091-2.094545-1.163636-3.723636-0.232727-4.421818 0L662.574545 325.818182v341.643636z" fill="#040000" p-id="2489"></path><path d="M610.443636 827.345455c-9.076364 0-18.152727-2.56-26.298181-7.447273L134.050909 542.952727c-16.058182-9.774545-25.6-27.229091-25.6-46.312727s9.541818-36.538182 25.367273-46.312727l225.047273-138.24c10.938182-6.749091 25.367273-3.258182 32.116363 7.68 6.749091 10.938182 3.258182 25.367273-7.68 32.116363L158.254545 490.123636c-3.025455 1.861818-3.258182 5.352727-3.258181 6.749091s0.232727 4.887273 3.490909 6.749091l449.861818 276.712727c0.465455 0.232727 2.094545 1.163636 4.189091 0 0.930909-0.698182 3.490909-2.327273 3.490909-6.74909V219.927273c0-4.421818-2.327273-6.050909-3.490909-6.749091-2.094545-1.163636-3.723636-0.232727-4.421818 0l-93.789091 57.716363c-10.938182 6.749091-25.367273 3.258182-32.116364-7.68-6.749091-10.938182-3.258182-25.367273 7.68-32.116363l93.789091-57.716364c16.058182-9.774545 35.141818-10.007273 51.432727-0.930909 16.756364 9.541818 27.229091 27.461818 27.229091 47.243636v553.658182c0 19.781818-10.472727 37.701818-27.229091 47.243637-7.68 4.421818-16.058182 6.749091-24.669091 6.749091z" fill="#040000" p-id="2490"></path></svg>